<svg id="SvgjsSvg1001" width="550" height="550" xmlns="http://www.w3.org/2000/svg" version="1.1" xmlns:xlink="http://www.w3.org/1999/xlink" xmlns:svgjs="http://svgjs.com/svgjs"><defs id="SvgjsDefs1002"></defs><g id="SvgjsG1008"><svg xmlns="http://www.w3.org/2000/svg" xmlns:xlink="http://www.w3.org/1999/xlink" enable-background="new 0 0 3000 3000" viewBox="0 0 3000 3000" width="550" height="550"><path fill="#79c143" d="M2180.7,1840.3c24.5,12.3,49,24.6,73.5,36.8c-24.8,13.6-49.5,27.2-74.3,40.8c-5.3-19.6-10.5-39.2-15.8-58.8
		C2169.7,1852.9,2175.2,1846.6,2180.7,1840.3z" class="color79c143 svgShape"></path><path fill="#625c5c" d="M1196.9,2218.8c86.4,37,172.7,73.9,259.1,110.9c-88.3,54-176.7,108-265,162c-17.2-3-34.3-6-51.5-9
		c-78.3-39.1-156.7-78.2-235-117.3c-18.2,9.1-36.3,18.2-54.5,27.3c-180.1-89.9-360.3-179.8-540.4-269.8
		c304.6-152.3,609.1-304.5,913.7-456.8c168.9,95.2,337.8,190.4,506.8,285.6C1552.3,2040.7,1374.6,2129.8,1196.9,2218.8z" class="color625c5c svgShape"></path><path fill="#827a7a" d="M1084.7,2510.5c147.7,73.8,295.3,147.7,443,221.5c387.6-193.8,775.2-387.6,1162.8-581.4
		c-142.3-71.3-284.6-142.6-426.8-213.9C1870.7,2128,1477.7,2319.2,1084.7,2510.5z" class="color827a7a svgShape"></path><path fill="#7aeaed" d="M2190.7,959.3c37.4,18.7,74.8,37.4,112.2,56.2c-30.5,6.1-61,12.2-91.4,18.3c-15.5-9.6-31-19.2-46.5-28.8
		C2173.5,989.8,2182.1,974.6,2190.7,959.3z" class="color7aeaed svgShape"></path><path fill="#a7adb0" d="M1417,2344.4c-129.2-64.6-258.4-129.2-387.6-193.8c0-479.9,0-959.8,0-1439.7
		c150.4,75.2,300.7,150.5,451.1,225.7c0.7,201.8-2.8,403.5-10.5,605C1459.7,1809.5,1442.1,2077.1,1417,2344.4z" class="colora7adb0 svgShape"></path><path fill="#458485" d="M933.1,709.7c-4.8,0.4-9.7,0.8-14.5,1.2c0.1,18.4,0.1,36.8,0.2,55.2c166.1,83.1,332.1,166.2,498.2,249.3
		c0.2-0.1,0.3-0.2,0.5-0.3c-0.1-0.2-0.3-0.3-0.4-0.5c2.2-12.6,3.9-26.5,4.9-41.7c0.8-12.9,1-24.9,0.7-36
		C1259.5,861.2,1096.3,785.5,933.1,709.7z" class="color458485 svgShape"></path><path fill="#a7adb0" d="M697.1,2316.7c18.5,9.2,36.9,18.5,55.4,27.7c1.5-1.1,2.9-2.2,4.4-3.3c0-1.4,0-2.7,0-4.1
			c3.3-174.8,6.6-349.6,9.9-524.4c-23.2-3-46.5-6-69.7-9C697.1,1974.6,697.1,2145.7,697.1,2316.7z" class="colora7adb0 svgShape"></path><path fill="#dfe6ea" d="M808.1,1796.5c-0.1,173.4-0.2,346.8-0.2,520.2c-18.5,9.2-36.9,18.5-55.4,27.7c0-173.2,0-346.5,0-519.7
			C771,1815.3,789.6,1805.9,808.1,1796.5z" class="colordfe6ea svgShape"></path><path fill="#3d6122" d="M1039.3,2402.3c-0.9,9.6-1.7,19.2-2.6,28.8c-1.6,17.7-3.2,35.4-4.8,53c-93.1-46.6-186.3-93.1-279.4-139.7V2289
		c8.6-4.3,17.2-8.6,25.8-12.9c3.4,5.6,6.9,11.3,10.3,16.9C872.2,2329.4,955.7,2365.9,1039.3,2402.3z" class="color3d6122 svgShape"></path><path fill="#e0e9ed" d="M2192.1,518.8c0,479.9,0,959.8,0,1439.6c-258.4,128.6-516.8,257.3-775.2,385.9c0-479.9,0-959.7,0-1439.6
		C1675.3,776.2,1933.7,647.5,2192.1,518.8z" class="colore0e9ed svgShape"></path><path fill="#79c143" d="M1058,2386c-4.4,16.4-8.8,32.8-13.1,49.1c-2.7-1.3-5.4-2.7-8.1-4.1c-94.7-47.4-189.5-94.7-284.2-142.1
		c8.6-4.3,17.2-8.6,25.8-12.9c9.8-4.9,19.7-9.9,29.6-14.8C891.3,2302.9,974.6,2344.4,1058,2386z" class="color79c143 svgShape"></path><path fill="#5cb0b2" d="M2302.9,517.2c0,18.5,0,36.9-0.1,55.4c-295.3,147.6-590.6,295.3-885.9,442.9c0-19.8,0-39.6,0-59.4
		c291.2-148.3,582.4-296.6,873.6-444.9C2294.7,513.1,2298.8,515.1,2302.9,517.2z" class="color5cb0b2 svgShape"></path><path fill="#536b95" d="M1361.6,1984.5v332.3c-54.4-27.2-108.8-54.5-163.2-81.8l-6-3c-25.5-12.8-51-25.6-76.5-38.3
		c6.4-107.5,12.8-215.1,19.3-322.6C1210.7,1908.9,1286.1,1946.7,1361.6,1984.5z" class="color536b95 svgShape"></path><defs><path id="a" d="M1361.6,1984.5v332.3c-54.4-27.2-108.8-54.5-163.2-81.8l-6-3c-25.5-12.8-51-25.6-76.5-38.3
				c6.4-107.5,12.8-215.1,19.3-322.6C1210.7,1908.9,1286.1,1946.7,1361.6,1984.5z" fill="#000000" class="color000 svgShape"></path></defs><clipPath id="b"><use overflow="visible" xlink:href="#a"></use></clipPath><g clip-path="url(#b)" fill="#000000" class="color000 svgShape"><rect width="509" height="86.4" x="944.9" y="1999.2" fill="#7589aa" transform="rotate(-36.621 1199.459 2042.46)" class="color7589aa svgShape"></rect><rect width="509" height="58.7" x="999.5" y="2140.1" fill="#7589aa" transform="rotate(-36.621 1254.024 2169.53)" class="color7589aa svgShape"></rect></g><path fill="#7aeaed" d="M1804.6,268c166.1,83.1,332.2,166.1,498.3,249.2C2007.6,664.8,1712.3,812.4,1417,960
		C1250.9,877,1084.8,794,918.6,711C1213.9,563.3,1509.2,415.6,1804.6,268z" class="color7aeaed svgShape"></path><polygon fill="#98a6bf" points="1198.5 1928.2 1198.5 2235 1192.5 2232 1192.5 1928.2" class="color98a6bf svgShape"></polygon><path fill="#458485" d="M1693.8,711c-18.3,9.2-36.6,18.3-54.9,27.5c-74,37-147.9,74-221.9,110.9c-73.7-36.9-147.4-73.8-221.2-110.6
			c-18.5-9.3-37.1-18.6-55.6-27.8c92.3-46.1,184.5-92.3,276.8-138.4C1509.3,618.7,1601.5,664.8,1693.8,711z" class="color458485 svgShape"></path><path fill="#5cb0b2" d="M1638.9,738.4c-74,37-147.9,74-221.9,110.9c-73.7-36.9-147.4-73.8-221.2-110.6
			c73.7-36.9,147.4-73.8,221.1-110.8C1490.9,664.8,1564.9,701.6,1638.9,738.4z" class="color5cb0b2 svgShape"></path><path fill="#458485" d="M2081.4,517.2c-18.3,9.2-36.6,18.3-54.9,27.5c-74,37-147.9,74-221.9,110.9c-73.7-36.9-147.4-73.7-221.2-110.6
			c-18.5-9.3-37.1-18.6-55.6-27.8c92.3-46.1,184.5-92.3,276.8-138.4C1896.8,424.9,1989.1,471,2081.4,517.2z" class="color458485 svgShape"></path><path fill="#5cb0b2" d="M2026.5,544.6c-74,37-147.9,74-221.9,110.9c-73.7-36.9-147.4-73.7-221.2-110.6
			c73.7-36.9,147.4-73.9,221.1-110.8C1878.5,471,1952.5,507.8,2026.5,544.6z" class="color5cb0b2 svgShape"></path><path fill="#458485" d="M974,1237c0,18.4-0.1,36.9-0.1,55.3c147.7,73.8,295.4,147.7,443.1,221.5c0-0.1,0.1-0.1,0.1-0.2
		c0-0.1,0-0.3,0-0.4c0.7-15.7,6-33.2,19.3-52.1c-4.2-8.2-8.3-16.3-12.5-24.5c-138.2-66.8-276.3-133.7-414.5-200.5
		C997.6,1236.4,985.8,1236.7,974,1237z" class="color458485 svgShape"></path><path fill="#5cb0b2" d="M2245.4,1043.1c18.5-9.1,37-18.3,55.5-27.4c0.7-0.1,1.4-0.1,2.1-0.2c0.1,18.5,0.2,37,0.3,55.4
		c-295.4,147.6-590.8,295.3-886.2,442.9c0-19.7,0-39.4,0-59.1c253.5-132.8,507-265.6,760.5-398.4
		C2200.1,1051.9,2222.8,1047.5,2245.4,1043.1z" class="color5cb0b2 svgShape"></path><path fill="#a7adb0" d="M1029.4,2482.8c18.5,9.2,36.9,18.5,55.4,27.7c0.2-0.1,0.4-0.3,0.6-0.4c1.3-2.3,2.6-4.6,3.8-6.9
		c3.3-174.8,6.6-349.6,9.9-524.4c-23.3-3-46.6-6-69.9-9.1C1029.3,2140.7,1029.3,2311.8,1029.4,2482.8z" class="colora7adb0 svgShape"></path><path fill="#5cb0b2" d="M1472.2,1430.8c-18.4,9.2-36.8,18.5-55.2,27.7c-147.7-73.8-295.4-147.7-443.1-221.5
		c18.5-9.2,36.9-18.5,55.4-27.7C1177,1283.1,1324.6,1357,1472.2,1430.8z" class="color5cb0b2 svgShape"></path><path fill="#a7adb0" d="M697.1,1763c0,18.5,0,36.9,0,55.4c129.6,64.8,259.2,129.5,388.8,194.3c4.7-9.5,9.3-19,14-28.5
		c-1-18.2-2-36.3-3-54.5c-117.3-57.5-234.7-115-352-172.5C729,1759.1,713.1,1761.1,697.1,1763z" class="colora7adb0 svgShape"></path><path fill="#7aeaed" d="M1417,1403.1c258.4-129.2,516.8-258.4,775.2-387.6c36.9,0,73.8,0,110.7,0c-295.3,147.7-590.6,295.4-885.9,443
		C1417,1440.1,1417,1421.6,1417,1403.1z" class="color7aeaed svgShape"></path><path fill="#dfe6ea" d="M1417,1790.7c0,18.5,0,36.9,0,55.4c-110.7,55.4-221.5,110.7-332.2,166.1c0-27.7,0-55.3,0-83
		c99.1-48.5,198.1-97,297.2-145.5C1393.6,1786,1405.3,1788.4,1417,1790.7z" class="colordfe6ea svgShape"></path><path fill="#b9bdc0" d="M1417,1790.7c-129.2-64.6-258.4-129.2-387.6-193.8c-110.7,55.4-221.5,110.7-332.2,166.1
		c129.2,64.6,258.4,129.2,387.6,193.8C1195.5,1901.4,1306.2,1846,1417,1790.7z" class="colorb9bdc0 svgShape"></path><path fill="#fdf5ff" d="M1471.4 2371.6c55.7 27.8 111.4 55.7 167.1 83.5 4.2-2.1 8.4-4.3 12.6-6.4-57.4-28.9-114.8-57.8-172.1-86.6C1476.5 2365.3 1473.9 2368.5 1471.4 2371.6zM1637.5 2288.6c55.7 27.8 111.4 55.7 167.1 83.5 4.2-2.1 8.4-4.3 12.6-6.4-57.4-28.9-114.8-57.8-172.1-86.6C1642.5 2282.3 1640 2285.4 1637.5 2288.6zM1803.6 2205.5c55.7 27.8 111.4 55.7 167.1 83.5 4.2-2.1 8.4-4.3 12.6-6.4-57.4-28.9-114.8-57.8-172.1-86.6C1808.6 2199.2 1806.1 2202.4 1803.6 2205.5zM1969.7 2122.5c55.7 27.8 111.4 55.7 167.1 83.5 4.2-2.1 8.4-4.3 12.6-6.4-57.4-28.9-114.8-57.8-172.1-86.6C1974.7 2116.1 1972.2 2119.3 1969.7 2122.5zM2135.8 2039.4c55.7 27.8 111.4 55.7 167.1 83.5 4.2-2.1 8.4-4.2 12.6-6.3-57.4-28.9-114.8-57.8-172.2-86.7C2140.9 2033.1 2138.3 2036.2 2135.8 2039.4z" class="colorfdf5ff svgShape"></path><path fill="#3d6122" d="M1417,2344.4c18.5,9.2,36.9,18.5,55.4,27.7c9.2-11.3,18.4-22.5,27.6-33.8c1.6-8.3,3.3-16.7,4.9-25
		c-29.3-8.1-58.6-16.2-87.9-24.3C1417,2307.5,1417,2325.9,1417,2344.4z" class="color3d6122 svgShape"></path><path fill="#5c9133" d="M2302.9,1901.4c0,5.3,0,22.4,0,27.7c0,5.3,0,22.4,0,27.7c-276.9,138.4-553.7,276.9-830.6,415.3
		c0-18.5,0-36.9,0-55.4h0c276.8-138.4,553.6-276.9,830.4-415.3C2302.8,1901.4,2302.8,1901.4,2302.9,1901.4z" class="color5c9133 svgShape"></path><path fill="#79c143" d="M2302.9,1901.4c-276.9,138.4-553.7,276.8-830.6,415.3h0c-18.5-9.2-36.9-18.4-55.3-27.6
		c276.8-138.4,553.7-276.9,830.6-415.3c7.3,3.6,14.6,7.3,21.8,10.9c7.8,3.9,13.2,6.6,21.8,10.9
		C2296.2,1898,2300.3,1900.1,2302.9,1901.4z" class="color79c143 svgShape"></path><path fill="#d3d3d3" d="M752.5,2233.6" class="colord3d3d3 svgShape"></path><path fill="#dfe6ea" d="M1140.3,1962.7c-0.1,173.4-0.2,346.8-0.2,520.2c-18.5,9.2-36.9,18.5-55.4,27.7c0-173.2,0-346.5,0-519.7
		C1103.3,1981.4,1121.8,1972,1140.3,1962.7z" class="colordfe6ea svgShape"></path><path fill="#6f8ec6" d="M1084.7,1403.1c0,55.4,0,110.8,0,166.1c36.9,18.5,73.8,36.9,110.7,55.4c0-55.4,0-110.8,0-166.1
			C1158.6,1440,1121.6,1421.5,1084.7,1403.1z" class="color6f8ec6 svgShape"></path><defs><path id="c" d="M1084.7,1403.1c0,55.4,0,110.8,0,166.1c36.9,18.5,73.8,36.9,110.7,55.4c0-55.4,0-110.8,0-166.1
					C1158.6,1440,1121.6,1421.5,1084.7,1403.1z" fill="#000000" class="color000 svgShape"></path></defs><clipPath id="d"><use overflow="visible" xlink:href="#c"></use></clipPath><g clip-path="url(#d)" fill="#000000" class="color000 svgShape"><polygon fill="#8ca5d1" points="1035.3 1583.8 1009.5 1575.6 1229 1392 1254.8 1400.2" class="color8ca5d1 svgShape"></polygon></g><g clip-path="url(#d)" fill="#000000" class="color000 svgShape"><polygon fill="#8ca5d1" points="1045.2 1613.5 1030.4 1608.8 1249.9 1425.2 1264.6 1429.9" class="color8ca5d1 svgShape"></polygon></g><path fill="#6f8ec6" d="M1250.8,1486.2c0,55.4,0,110.8,0,166.1c36.9,18.5,73.8,36.9,110.7,55.4c0-55.4,0-110.8,0-166.1
			C1324.7,1523.1,1287.8,1504.6,1250.8,1486.2z" class="color6f8ec6 svgShape"></path><defs><path id="e" d="M1250.8,1486.2c0,55.4,0,110.8,0,166.1c36.9,18.5,73.8,36.9,110.7,55.4c0-55.4,0-110.8,0-166.1
					C1324.7,1523.1,1287.8,1504.6,1250.8,1486.2z" fill="#000000" class="color000 svgShape"></path></defs><clipPath id="f"><use overflow="visible" xlink:href="#e"></use></clipPath><g clip-path="url(#f)" fill="#000000" class="color000 svgShape"><polygon fill="#8ca5d1" points="1219.4 1690.2 1193.6 1682 1413.1 1498.4 1438.9 1506.6" class="color8ca5d1 svgShape"></polygon></g><g clip-path="url(#f)" fill="#000000" class="color000 svgShape"><polygon fill="#8ca5d1" points="1190.9 1665 1163.5 1649.8 1386.6 1461.6 1414 1476.8" class="color8ca5d1 svgShape"></polygon></g><g clip-path="url(#f)" fill="#000000" class="color000 svgShape"><polygon fill="#8ca5d1" points="1229.3 1719.9 1214.6 1715.2 1434 1531.6 1448.8 1536.3" class="color8ca5d1 svgShape"></polygon></g><g fill="#000000" class="color000 svgShape"><path fill="#6f8ec6" d="M1250.8,1043.2c0,55.4,0,110.8,0,166.1c36.9,18.5,73.8,36.9,110.7,55.4c0-55.4,0-110.8,0-166.1
			C1324.7,1080.1,1287.8,1061.6,1250.8,1043.2z" class="color6f8ec6 svgShape"></path><defs><path id="g" d="M1250.8,1043.2c0,55.4,0,110.8,0,166.1c36.9,18.5,73.8,36.9,110.7,55.4c0-55.4,0-110.8,0-166.1
					C1324.7,1080.1,1287.8,1061.6,1250.8,1043.2z" fill="#000000" class="color000 svgShape"></path></defs><clipPath id="h"><use overflow="visible" xlink:href="#g"></use></clipPath><g clip-path="url(#h)" fill="#000000" class="color000 svgShape"><polygon fill="#8ca5d1" points="1219.4 1247.3 1193.6 1239 1413.1 1055.4 1438.9 1063.6" class="color8ca5d1 svgShape"></polygon></g><g clip-path="url(#h)" fill="#000000" class="color000 svgShape"><polygon fill="#8ca5d1" points="1229.3 1276.9 1214.6 1272.2 1434 1088.6 1448.8 1093.3" class="color8ca5d1 svgShape"></polygon></g></g><g fill="#000000" class="color000 svgShape"><path fill="#6f8ec6" d="M1084.7,960.1c0,55.4,0,110.8,0,166.1c36.9,18.5,73.8,36.9,110.7,55.4c0-55.4,0-110.8,0-166.1
			C1158.6,997,1121.7,978.6,1084.7,960.1z" class="color6f8ec6 svgShape"></path><defs><path id="i" d="M1084.7,960.1c0,55.4,0,110.8,0,166.1c36.9,18.5,73.8,36.9,110.7,55.4c0-55.4,0-110.8,0-166.1
					C1158.6,997,1121.7,978.6,1084.7,960.1z" fill="#000000" class="color000 svgShape"></path></defs><clipPath id="j"><use overflow="visible" xlink:href="#i"></use></clipPath><g clip-path="url(#j)" fill="#000000" class="color000 svgShape"><polygon fill="#8ca5d1" points="1051.6 1157.5 1028 1154.9 1248.7 979 1272.3 981.6" class="color8ca5d1 svgShape"></polygon></g><g clip-path="url(#j)" fill="#000000" class="color000 svgShape"><polygon fill="#8ca5d1" points="1023.7 1134 997.6 1120.5 1227.9 945.6 1254.1 959.1" class="color8ca5d1 svgShape"></polygon></g><g clip-path="url(#j)" fill="#000000" class="color000 svgShape"><polygon fill="#8ca5d1" points="1063.2 1193.9 1048.4 1189.2 1267.9 1005.5 1282.7 1010.2" class="color8ca5d1 svgShape"></polygon></g></g><g fill="#000000" class="color000 svgShape"><path fill="#8ca5d1" d="M1472.3,1541.5c0,55.4,0,110.7,0,166.1c221.4-110.7,442.8-221.5,664.1-332.2c0.1-55.4,0.2-110.8,0.3-166.3
			C1915.3,1320,1693.8,1430.7,1472.3,1541.5z" class="color8ca5d1 svgShape"></path><defs><path id="k" d="M1472.3,1541.5c0,55.4,0,110.7,0,166.1c221.4-110.7,442.8-221.5,664.1-332.2
					c0.1-55.4,0.2-110.8,0.3-166.3C1915.3,1320,1693.8,1430.7,1472.3,1541.5z" fill="#000000" class="color000 svgShape"></path></defs><clipPath id="l"><use overflow="visible" xlink:href="#k"></use></clipPath><g clip-path="url(#l)" fill="#000000" class="color000 svgShape"><rect width="61.7" height="412.4" x="1600.4" y="1360.5" fill="#a3b7da" transform="rotate(23.466 1631.042 1566.45)" class="colora3b7da svgShape"></rect><rect width="92.1" height="475.8" x="1875.7" y="1176.8" fill="#a3b7da" transform="rotate(23.46 1922.023 1414.901)" class="colora3b7da svgShape"></rect><rect width="36.5" height="412.4" x="1744.4" y="1289.5" fill="#a3b7da" transform="rotate(23.466 1762.505 1495.468)" class="colora3b7da svgShape"></rect></g></g><g fill="#000000" class="color000 svgShape"><path fill="#8ca5d1" d="M1473.8,1819c0,55.4,0,110.7,0,166.1c221.4-110.7,442.8-221.5,664.1-332.2c0.1-55.4,0.2-110.8,0.3-166.3
			C1916.8,1597.4,1695.3,1708.2,1473.8,1819z" class="color8ca5d1 svgShape"></path><defs><path id="m" d="M1473.8,1819c0,55.4,0,110.7,0,166.1c221.4-110.7,442.8-221.5,664.1-332.2c0.1-55.4,0.2-110.8,0.3-166.3
					C1916.8,1597.4,1695.3,1708.2,1473.8,1819z" fill="#000000" class="color000 svgShape"></path></defs><clipPath id="n"><use overflow="visible" xlink:href="#m"></use></clipPath><g clip-path="url(#n)" fill="#000000" class="color000 svgShape"><rect width="61.7" height="412.4" x="1601.9" y="1638" fill="#a3b7da" transform="rotate(23.466 1632.548 1843.901)" class="colora3b7da svgShape"></rect><rect width="92.1" height="475.8" x="1877.2" y="1454.3" fill="#a3b7da" transform="rotate(23.46 1923.518 1692.423)" class="colora3b7da svgShape"></rect><rect width="36.5" height="412.4" x="1745.9" y="1567" fill="#a3b7da" transform="rotate(23.466 1764.01 1772.92)" class="colora3b7da svgShape"></rect></g></g><g fill="#000000" class="color000 svgShape"><path fill="#f4f5f6" d="M2126.3,810.7c-107.4,40.2-214.9,80.4-322.3,120.7c-20.3,5.1-65.9,19.4-107,60.3
			c-37.5,37.4-52.5,78.2-58.4,98.2c0-43.3-0.1-86.5-0.1-129.8c55.4-27.7,110.8-55.4,166.1-83.1c0.1,0,0.2,0.1,0.3,0.1
			c52-26.1,104.1-52.2,156.1-78.2v0c55.4-27.7,110.7-55.4,166.1-83c3.1,1.6,6.3,3.2,9.4,4.7C2133.1,750.6,2129.7,780.7,2126.3,810.7
			z" class="colorf4f5f6 svgShape"></path><path fill="#ededed" d="M1648,1241.8c0-92.3,0-184.5,0-276.8c162.8-81.5,325.6-162.9,488.5-244.4c0.1,92.2,0.2,184.5,0.3,276.7
			C1973.9,1078.8,1810.9,1160.3,1648,1241.8z" class="colorededed svgShape"></path></g><g fill="#000000" class="color000 svgShape"><path fill="#ff8b8b" d="M1648.1,1241.6c-0.6-0.1-1.5-0.4-2.5-0.8c-1.1-0.4-1.8-0.9-2.2-1.1c-1-0.5-3.8-1.9-4.7-2.4
			c0-89.2,0-178.4,0-267.6c0,46.1,0,92.2-0.1,138.3c-54.8,23.1-110.9,43.2-166.2,64.9v-129.6c55.3-27.7,110.7-55.5,166-83.2
			c3.2,1.6,6.3,3.3,9.5,4.9C1648,1057.2,1648,1149.4,1648.1,1241.6z" class="colorff8b8b svgShape"></path><path fill="#bf5353" d="M1488.6,1319.3c-0.8,0.1-2.8,0.6-4.5,2.2c-1.3,1.2-1.9,2.6-2.2,3.3c-1.6-0.8-3.2-1.6-4.7-2.4
			c-1.6-0.8-3.2-1.6-4.7-2.4c0-92.3,0-184.5,0-276.8c3.5,1.7,6.9,3.5,10.4,5.2c0.5,16.3,1,41.1,1.5,62.4c1,0,2.1,0.1,3.1,0.1
			C1487.8,1180.5,1488.2,1249.9,1488.6,1319.3z" class="colorbf5353 svgShape"></path><path fill="#ff6e6e" d="M1647.9,965c0.1,92.3,0.1,184.5,0.2,276.8c-55.4,27.7-110.8,55.4-166.2,83.1c0-92.3,0-184.6,0-276.9
			c52.4-25.8,104.7-51.9,156.8-78.4C1641.3,968.4,1645.4,966.3,1647.9,965z" class="colorff6e6e svgShape"></path><path fill="#dfe6ea" d="M1621.1,1137.5l-37.2,19v46.8c-12.5,6.3-25,12.5-37.5,18.8v-46.4l-37.1,19c-0.1-14-0.2-28-0.3-42l37.4-19.2
				v-47.1c12.5-6.3,25-12.5,37.5-18.8v46.7l37-18.9C1620.9,1109.5,1621,1123.5,1621.1,1137.5z" class="colordfe6ea svgShape"></path></g><g fill="#000000" class="color000 svgShape"><path d="M1710.1 1027.8v35.3l28.1-14.2v-35.3l7.6-3.8v84.3l-7.6 3.8v-39.5l-28.1 14.2v39.5l-7.5 3.8v-84.3L1710.1 1027.8zM1808.6 1019.3c0 29-12.2 50.6-27 58.1-15.4 7.8-26.2-4.1-26.2-29.6 0-26.8 11.5-50.1 27-57.9C1798.4 981.8 1808.6 994.3 1808.6 1019.3zM1763.5 1043.5c0 18 6.7 30.8 18.6 24.8 11.9-6 18.6-25.3 18.6-44.5 0-16.8-6-31.2-18.6-24.9C1769.7 1005.2 1763.5 1025 1763.5 1043.5zM1817.4 1044.7c3.4 1.3 8.3 1.3 13.5-1.3 7.7-3.9 12.2-12 12.2-20.5 0-7.9-3.1-10.8-11-11.2-9.5-.1-15.4-4.3-15.4-16.1 0-13.1 7.5-26.7 18.8-32.4 6-3 10.3-3.2 12.9-2.4l-2.1 9.9c-1.9-.5-5.8-1.1-11.1 1.6-7.9 4-11 12.4-11 18.2 0 7.9 3.5 10 11.6 10.4 9.8.5 14.8 4.9 14.8 17.3 0 13-6.6 27.6-20.4 34.6-5.6 2.8-11.7 3.6-14.8 2.1L1817.4 1044.7zM1861 952.6c3.6-2.7 8.4-5.9 14.4-8.9 7.4-3.7 12.9-4 16.3-1.2 3.2 2.4 5.1 7.6 5.1 15.1 0 7.6-1.6 14.4-4.5 20.3-4 8.1-10.4 14.5-17.8 18.2-2.2 1.1-4.3 2.1-6 2.3v33.8l-7.5 3.8V952.6zM1868.5 989.5c1.6-.2 3.7-1 6.2-2.3 9.1-4.6 14.6-13.7 14.6-25.4 0-11.1-5.4-13.8-13.7-9.6-3.3 1.7-5.8 3.3-7.1 4.5V989.5zM1914.4 924.6v84.3l-7.5 3.8v-84.3L1914.4 924.6zM1938.6 921.7l-17.7 8.9v-9.3l43.1-21.8v9.3l-17.8 9v75.1l-7.6 3.8V921.7zM1973.4 952.7l-6 29.6-7.8 3.9 19.8-94.3 9.1-4.6 19.9 74.3-8 4.1-6.2-23.4L1973.4 952.7zM1992.4 934.5l-5.7-21.4c-1.3-4.9-2.2-9.4-3-13.9l-.2.1c-.9 5.4-1.8 11.1-2.9 16.7l-5.7 27.3L1992.4 934.5zM2016.8 872.9l7.5-3.8v75.2l24.9-12.6v9.1l-32.4 16.3V872.9z" fill="#000000" class="color000 svgShape"></path></g><g fill="#000000" class="color000 svgShape"><path fill="#b8bcbf" d="M1693.8,655.6c0,18.4,0,36.9,0,55.3c36.9-18.3,73.8-36.5,110.7-54.8c0-18.7,0.1-37.3,0.1-56
			C1767.6,618.7,1730.7,637.1,1693.8,655.6z" class="colorb8bcbf svgShape"></path><path fill="#b8bcbf" d="M1698.1,651.5c-0.1,17.2-0.1,34.3-0.2,51.5c-1.4,2.7-2.8,5.4-4.1,8.1c-43.3-21.7-86.7-43.4-130-65
			c-2.6-1.3-5.1-2.6-7.7-3.9c-0.4-0.2-0.8-0.4-1.1-0.6c-2.3-1.1-4.6-2.3-6.9-3.4c-43.7-21.9-87.4-43.7-131.1-65.6
			c0-18.5,0-36.9,0-55.4c5.4,0.6,10.9,1.1,16.3,1.7c40.4,20.2,80.8,40.5,121.2,60.7c2.3,1.2,4.6,2.3,6.9,3.5
			c0.4,0.2,0.8,0.4,1.1,0.6c2.5,1.3,5.1,2.5,7.6,3.8C1612.8,608.7,1655.5,630.1,1698.1,651.5z" class="colorb8bcbf svgShape"></path><path fill="#f5fbff" d="M1804.6,600.2c-36.9,18.5-73.8,36.9-110.7,55.4c-11.5-5.8-53.7-26.8-64.6-32.3c-19-9.5-45.3-22.7-65.4-32.7
			c-1.4-0.7-14.1-7.1-15.6-7.8c-25.3-12.7-73.7-36.9-131.2-65.6c18.4-9.2,36.9-18.5,55.3-27.7c18.4-9.2,36.9-18.5,55.3-27.7
			c43.4,21.7,86.9,43.4,130.3,65.1c2.7,1.3,5.3,2.7,7.9,4c0.4,0.2,0.8,0.4,1.1,0.6c2.6,1.3,5.1,2.5,7.6,3.8
			C1717.9,556.9,1761.2,578.6,1804.6,600.2z" class="colorf5fbff svgShape"></path><path fill="#b8bcbf" d="M1740.1,601.1c-0.3,4.4-2,9-5.6,13.5c-2.9,3.8-6.5,6.8-10.5,9.3c-16.1,9.8-39.5,9.9-55.9,4.3
							c-5-1.7-9.7-4.3-13.7-7.4c-5.3-4.2-9.3-9.4-11-15.1c-2.2-7.1-1.1-15,5.4-22.6c0.3-0.3,0.5-0.6,0.8-1
							c14.9-16.5,44.8-18.3,64.3-11.5c8,2.8,15.7,7.8,20.6,14.2c0,0,0,0,0,0C1738.3,589.6,1740.5,595.1,1740.1,601.1z" class="colorb8bcbf svgShape"></path><path fill="#e1e3e5" d="M1740.1,601.1c-0.3,4.4-2,9-5.6,13.5c-2.9,3.8-6.5,6.8-10.5,9.3c-16.1,9.8-39.5,9.9-55.9,4.3
							c-5-1.7-9.7-4.3-13.7-7.4c-5.3-4.2-9.3-9.4-11-15.1c0.3-4.8,2.3-9.8,6.4-14.6c0.3-0.3,0.5-0.6,0.8-1
							c14.9-16.5,44.8-18.3,64.3-11.5c8,2.8,15.7,7.8,20.6,14.2c0,0,0,0,0,0C1737.6,595.3,1739.1,598.1,1740.1,601.1z" class="colore1e3e5 svgShape"></path><path fill="#b8bcbf" d="M1700.2,602.6c-0.6,0.8-1.3,1.4-2.2,1.9c-3.3,2-8.2,2-11.6,0.9c-1-0.4-2-0.9-2.8-1.5
							c-2.4-1.9-3.6-5-1.2-7.8c0.1-0.1,0.1-0.1,0.2-0.2c3.1-3.4,9.3-3.8,13.3-2.4c1.7,0.6,3.3,1.6,4.3,2.9c0,0,0,0,0,0
							C1701.6,598.1,1702,600.3,1700.2,602.6z" class="colorb8bcbf svgShape"></path><g fill="#000000" class="color000 svgShape"><path fill="#b8bcbf" d="M1579.1,520.1c-0.3,4.4-2,9-5.6,13.5c-2.9,3.8-6.5,6.8-10.5,9.3c-16.1,9.8-39.5,9.9-55.9,4.3
							c-5-1.7-9.7-4.3-13.7-7.4c-5.3-4.2-9.3-9.4-11-15.1c-2.2-7.1-1.1-15,5.4-22.6c0.3-0.3,0.5-0.6,0.8-1
							c14.9-16.5,44.8-18.3,64.3-11.5c8,2.8,15.7,7.8,20.6,14.2c0,0,0,0,0,0C1577.3,508.6,1579.5,514.1,1579.1,520.1z" class="colorb8bcbf svgShape"></path><path fill="#e1e3e5" d="M1579.1,520.1c-0.3,4.4-2,9-5.6,13.5c-2.9,3.8-6.5,6.8-10.5,9.3c-16.1,9.8-39.5,9.9-55.9,4.3
							c-5-1.7-9.7-4.3-13.7-7.4c-5.3-4.2-9.3-9.4-11-15.1c0.3-4.8,2.3-9.8,6.4-14.6c0.3-0.3,0.5-0.6,0.8-1
							c14.9-16.5,44.8-18.3,64.3-11.5c8,2.8,15.7,7.8,20.6,14.2c0,0,0,0,0,0C1576.6,514.3,1578.1,517.1,1579.1,520.1z" class="colore1e3e5 svgShape"></path><path fill="#b8bcbf" d="M1539.2,521.6c-0.6,0.8-1.3,1.4-2.2,1.9c-3.3,2-8.2,2-11.6,0.9c-1-0.4-2-0.9-2.8-1.5
							c-2.4-1.9-3.6-5-1.2-7.8c0.1-0.1,0.1-0.1,0.2-0.2c3.1-3.4,9.3-3.8,13.3-2.4c1.7,0.6,3.3,1.6,4.3,2.9c0,0,0,0,0,0
							C1540.6,517.1,1541,519.3,1539.2,521.6z" class="colorb8bcbf svgShape"></path></g><g fill="#000000" class="color000 svgShape"><path fill="#474747" d="M1563.8,590.6V646c-2.6-1.3-5.1-2.6-7.7-3.9c-0.4-0.2-0.8-0.4-1.1-0.6c-2.3-1.1-4.6-2.3-6.9-3.4
				c0-18.5,0-36.9,0.1-55.4l6.8,3.4c0,0,0,0,0,0c0.4,0.2,0.7,0.4,1.1,0.6h0C1558.7,588,1561.2,589.3,1563.8,590.6z" class="color474747 svgShape"></path><path fill="#8d8d8e" d="M1674.6,535.2l-104.4,52.1l-6.3,3.2v0.1c-2.6-1.3-5.1-2.6-7.7-3.8h0c-0.4-0.2-0.7-0.4-1.1-0.6c0,0,0,0,0,0
				l-6.8-3.4v0c2.1-1.1,4.2-2.1,6.3-3.2c34.5-17.6,68.9-35.1,103.4-52.6c2.7,1.3,5.3,2.7,7.9,4c0.4,0.2,0.8,0.4,1.1,0.6
				C1669.5,532.7,1672,534,1674.6,535.2z" class="color8d8d8e svgShape"></path></g></g><g fill="#000000" class="color000 svgShape"><path fill="#b8bcbf" d="M1417,794c0,18.4,0,36.9,0,55.3c36.9-18.3,73.8-36.5,110.7-54.8c0-18.7,0.1-37.3,0.1-56
			C1490.8,757.1,1453.9,775.6,1417,794z" class="colorb8bcbf svgShape"></path><path fill="#b8bcbf" d="M1421.3,789.9c-0.1,17.2-0.1,34.3-0.2,51.5c-1.4,2.7-2.8,5.4-4.1,8.1c-43.3-21.7-86.7-43.4-130-65
			c-2.6-1.3-5.1-2.6-7.7-3.9c-0.4-0.2-0.8-0.4-1.1-0.6c-2.3-1.1-4.6-2.3-6.9-3.4c-43.7-21.9-87.4-43.7-131.1-65.6
			c0-18.5,0-36.9,0-55.4c5.4,0.6,10.9,1.1,16.3,1.7c40.4,20.2,80.8,40.5,121.2,60.7c2.3,1.2,4.6,2.3,6.9,3.5
			c0.4,0.2,0.8,0.4,1.1,0.6c2.5,1.3,5.1,2.5,7.6,3.8C1336,747.2,1378.6,768.6,1421.3,789.9z" class="colorb8bcbf svgShape"></path><path fill="#f5fbff" d="M1527.7,738.7c-36.9,18.5-73.8,36.9-110.7,55.4c-11.5-5.8-53.7-26.8-64.6-32.3c-19-9.5-45.3-22.7-65.4-32.7
			c-1.4-0.7-14.1-7.1-15.6-7.8c-25.3-12.7-73.7-36.9-131.2-65.6c18.4-9.2,36.9-18.5,55.3-27.7c18.4-9.2,36.9-18.5,55.3-27.7
			c43.4,21.7,86.9,43.4,130.3,65.1c2.7,1.3,5.3,2.7,7.9,4c0.4,0.2,0.8,0.4,1.1,0.6c2.6,1.3,5.1,2.5,7.6,3.8
			C1441.1,695.3,1484.4,717,1527.7,738.7z" class="colorf5fbff svgShape"></path><path fill="#b8bcbf" d="M1463.2,739.5c-0.3,4.4-2,9-5.6,13.5c-2.9,3.8-6.5,6.8-10.5,9.3c-16.1,9.8-39.5,9.9-55.9,4.3
							c-5-1.7-9.7-4.3-13.7-7.4c-5.3-4.2-9.3-9.4-11-15.1c-2.2-7.1-1.1-15,5.4-22.6c0.3-0.3,0.5-0.6,0.8-1
							c14.9-16.5,44.8-18.3,64.3-11.5c8,2.8,15.7,7.8,20.6,14.2c0,0,0,0,0,0C1461.5,728,1463.7,733.6,1463.2,739.5z" class="colorb8bcbf svgShape"></path><path fill="#e1e3e5" d="M1463.2,739.5c-0.3,4.4-2,9-5.6,13.5c-2.9,3.8-6.5,6.8-10.5,9.3c-16.1,9.8-39.5,9.9-55.9,4.3
							c-5-1.7-9.7-4.3-13.7-7.4c-5.3-4.2-9.3-9.4-11-15.1c0.3-4.8,2.3-9.8,6.4-14.6c0.3-0.3,0.5-0.6,0.8-1
							c14.9-16.5,44.8-18.3,64.3-11.5c8,2.8,15.7,7.8,20.6,14.2c0,0,0,0,0,0C1460.7,733.8,1462.3,736.6,1463.2,739.5z" class="colore1e3e5 svgShape"></path><path fill="#b8bcbf" d="M1423.4,741c-0.6,0.8-1.3,1.4-2.2,1.9c-3.3,2-8.2,2-11.6,0.9c-1-0.4-2-0.9-2.8-1.5
							c-2.4-1.9-3.6-5-1.2-7.8c0.1-0.1,0.1-0.1,0.2-0.2c3.1-3.4,9.3-3.8,13.3-2.4c1.7,0.6,3.3,1.6,4.3,2.9c0,0,0,0,0,0
							C1424.8,736.5,1425.1,738.7,1423.4,741z" class="colorb8bcbf svgShape"></path><g fill="#000000" class="color000 svgShape"><path fill="#b8bcbf" d="M1302.2,658.5c-0.3,4.4-2,9-5.6,13.5c-2.9,3.8-6.5,6.8-10.5,9.3c-16.1,9.8-39.5,9.9-55.9,4.3
							c-5-1.7-9.7-4.3-13.7-7.4c-5.3-4.2-9.3-9.4-11-15.1c-2.2-7.1-1.1-15,5.4-22.6c0.3-0.3,0.5-0.6,0.8-1
							c14.9-16.5,44.8-18.3,64.3-11.5c8,2.8,15.7,7.8,20.6,14.2c0,0,0,0,0,0C1300.5,647,1302.7,652.6,1302.2,658.5z" class="colorb8bcbf svgShape"></path><path fill="#e1e3e5" d="M1302.2,658.5c-0.3,4.4-2,9-5.6,13.5c-2.9,3.8-6.5,6.8-10.5,9.3c-16.1,9.8-39.5,9.9-55.9,4.3
							c-5-1.7-9.7-4.3-13.7-7.4c-5.3-4.2-9.3-9.4-11-15.1c0.3-4.8,2.3-9.8,6.4-14.6c0.3-0.3,0.5-0.6,0.8-1
							c14.9-16.5,44.8-18.3,64.3-11.5c8,2.8,15.7,7.8,20.6,14.2c0,0,0,0,0,0C1299.7,652.8,1301.3,655.6,1302.2,658.5z" class="colore1e3e5 svgShape"></path><path fill="#b8bcbf" d="M1262.4,660c-0.6,0.8-1.3,1.4-2.2,1.9c-3.3,2-8.2,2-11.6,0.9c-1-0.4-2-0.9-2.8-1.5
							c-2.4-1.9-3.6-5-1.2-7.8c0.1-0.1,0.1-0.1,0.2-0.2c3.1-3.4,9.3-3.8,13.3-2.4c1.7,0.6,3.3,1.6,4.3,2.9c0,0,0,0,0,0
							C1263.8,655.5,1264.1,657.7,1262.4,660z" class="colorb8bcbf svgShape"></path></g><g fill="#000000" class="color000 svgShape"><path fill="#474747" d="M1287,729v55.4c-2.6-1.3-5.1-2.6-7.7-3.9c-0.4-0.2-0.8-0.4-1.1-0.6c-2.3-1.1-4.6-2.3-6.9-3.4
				c0-18.5,0-36.9,0.1-55.4l6.8,3.4c0,0,0,0,0,0c0.4,0.2,0.7,0.4,1.1,0.6h0C1281.8,726.5,1284.4,727.7,1287,729z" class="color474747 svgShape"></path><path fill="#8d8d8e" d="M1397.7,673.7l-104.4,52.1l-6.3,3.2v0.1c-2.6-1.3-5.1-2.6-7.7-3.8h0c-0.4-0.2-0.7-0.4-1.1-0.6c0,0,0,0,0,0
				l-6.8-3.4v0c2.1-1.1,4.2-2.1,6.3-3.2c34.5-17.5,68.9-35.1,103.4-52.6c2.7,1.3,5.3,2.7,7.9,4c0.4,0.2,0.8,0.4,1.1,0.6
				C1392.6,671.1,1395.2,672.4,1397.7,673.7z" class="color8d8d8e svgShape"></path></g></g><g fill="#000000" class="color000 svgShape"><path fill="#b8bcbf" d="M1970.7,517.2c0,18.4,0,36.9,0,55.3c36.9-18.3,73.8-36.5,110.7-54.8c0-18.7,0.1-37.3,0.1-56
			C2044.5,480.2,2007.6,498.7,1970.7,517.2z" class="colorb8bcbf svgShape"></path><path fill="#b8bcbf" d="M1975,513.1c-0.1,17.2-0.1,34.3-0.2,51.5c-1.4,2.7-2.8,5.4-4.1,8.1c-43.3-21.7-86.7-43.4-130-65
			c-2.6-1.3-5.1-2.6-7.7-3.9c-0.4-0.2-0.8-0.4-1.1-0.6c-2.3-1.1-4.6-2.3-6.9-3.4c-43.7-21.9-87.4-43.7-131.1-65.6
			c0-18.5,0-36.9,0-55.4c5.4,0.6,10.9,1.1,16.3,1.7c40.4,20.2,80.8,40.5,121.2,60.7c2.3,1.2,4.6,2.3,6.9,3.5
			c0.4,0.2,0.8,0.4,1.1,0.6c2.5,1.3,5.1,2.5,7.6,3.8C1889.6,470.3,1932.3,491.7,1975,513.1z" class="colorb8bcbf svgShape"></path><path fill="#f5fbff" d="M2081.4,461.8c-36.9,18.5-73.8,36.9-110.7,55.4c-11.5-5.8-53.7-26.8-64.6-32.3c-19-9.5-45.3-22.7-65.4-32.7
			c-1.4-0.7-14.1-7.1-15.6-7.8c-25.3-12.7-73.7-36.9-131.2-65.6c18.4-9.2,36.9-18.5,55.3-27.7c18.4-9.2,36.9-18.5,55.3-27.7
			c43.4,21.7,86.9,43.4,130.3,65.1c2.7,1.3,5.3,2.7,7.9,4c0.4,0.2,0.8,0.4,1.1,0.6c2.6,1.3,5.1,2.5,7.6,3.8
			C1994.7,418.5,2038.1,440.1,2081.4,461.8z" class="colorf5fbff svgShape"></path><path fill="#b8bcbf" d="M2016.9,462.6c-0.3,4.4-2,9-5.6,13.5c-2.9,3.8-6.5,6.8-10.5,9.3c-16.1,9.8-39.5,9.9-55.9,4.3
							c-5-1.7-9.7-4.3-13.7-7.4c-5.3-4.2-9.3-9.4-11-15.1c-2.2-7.1-1.1-15,5.4-22.6c0.3-0.3,0.5-0.6,0.8-1
							c14.9-16.5,44.8-18.3,64.3-11.5c8,2.8,15.7,7.8,20.6,14.2c0,0,0,0,0,0C2015.2,451.1,2017.4,456.7,2016.9,462.6z" class="colorb8bcbf svgShape"></path><path fill="#e1e3e5" d="M2016.9,462.6c-0.3,4.4-2,9-5.6,13.5c-2.9,3.8-6.5,6.8-10.5,9.3c-16.1,9.8-39.5,9.9-55.9,4.3
							c-5-1.7-9.7-4.3-13.7-7.4c-5.3-4.2-9.3-9.4-11-15.1c0.3-4.8,2.3-9.8,6.4-14.6c0.3-0.3,0.5-0.6,0.8-1
							c14.9-16.5,44.8-18.3,64.3-11.5c8,2.8,15.7,7.8,20.6,14.2c0,0,0,0,0,0C2014.4,456.9,2016,459.7,2016.9,462.6z" class="colore1e3e5 svgShape"></path><path fill="#b8bcbf" d="M1977.1,464.1c-0.6,0.8-1.3,1.4-2.2,1.9c-3.3,2-8.2,2-11.6,0.9c-1-0.4-2-0.9-2.8-1.5
							c-2.4-1.9-3.6-5-1.2-7.8c0.1-0.1,0.1-0.1,0.2-0.2c3.1-3.4,9.3-3.8,13.3-2.4c1.7,0.6,3.3,1.6,4.3,2.9c0,0,0,0,0,0
							C1978.4,459.7,1978.8,461.9,1977.1,464.1z" class="colorb8bcbf svgShape"></path><g fill="#000000" class="color000 svgShape"><path fill="#b8bcbf" d="M1855.9,381.6c-0.3,4.4-2,9-5.6,13.5c-2.9,3.8-6.5,6.8-10.5,9.3c-16.1,9.8-39.5,9.9-55.9,4.3
							c-5-1.7-9.7-4.3-13.7-7.4c-5.3-4.2-9.3-9.4-11-15.1c-2.2-7.1-1.1-15,5.4-22.6c0.3-0.3,0.5-0.6,0.8-1
							c14.9-16.5,44.8-18.3,64.3-11.5c8,2.8,15.7,7.8,20.6,14.2c0,0,0,0,0,0C1854.2,370.1,1856.4,375.7,1855.9,381.6z" class="colorb8bcbf svgShape"></path><path fill="#e1e3e5" d="M1855.9,381.6c-0.3,4.4-2,9-5.6,13.5c-2.9,3.8-6.5,6.8-10.5,9.3c-16.1,9.8-39.5,9.9-55.9,4.3
							c-5-1.7-9.7-4.3-13.7-7.4c-5.3-4.2-9.3-9.4-11-15.1c0.3-4.8,2.3-9.8,6.4-14.6c0.3-0.3,0.5-0.6,0.8-1
							c14.9-16.5,44.8-18.3,64.3-11.5c8,2.8,15.7,7.8,20.6,14.2c0,0,0,0,0,0C1853.4,375.9,1855,378.7,1855.9,381.6z" class="colore1e3e5 svgShape"></path><path fill="#b8bcbf" d="M1816.1,383.1c-0.6,0.8-1.3,1.4-2.2,1.9c-3.3,2-8.2,2-11.6,0.9c-1-0.4-2-0.9-2.8-1.5
							c-2.4-1.9-3.6-5-1.2-7.8c0.1-0.1,0.1-0.1,0.2-0.2c3.1-3.4,9.3-3.8,13.3-2.4c1.7,0.6,3.3,1.6,4.3,2.9c0,0,0,0,0,0
							C1817.4,378.7,1817.8,380.9,1816.1,383.1z" class="colorb8bcbf svgShape"></path></g><g fill="#000000" class="color000 svgShape"><path fill="#474747" d="M1840.7,452.2v55.4c-2.6-1.3-5.1-2.6-7.7-3.9c-0.4-0.2-0.8-0.4-1.1-0.6c-2.3-1.1-4.6-2.3-6.9-3.4
				c0-18.5,0-36.9,0.1-55.4l6.8,3.4c0,0,0,0,0,0c0.4,0.2,0.7,0.4,1.1,0.6h0C1835.5,449.6,1838.1,450.9,1840.7,452.2z" class="color474747 svgShape"></path><path fill="#8d8d8e" d="M1951.4,396.8L1847,448.9l-6.3,3.2v0.1c-2.6-1.3-5.1-2.6-7.7-3.8h0c-0.4-0.2-0.7-0.4-1.1-0.6c0,0,0,0,0,0
				l-6.8-3.4v0c2.1-1.1,4.2-2.1,6.3-3.2c34.5-17.5,68.9-35.1,103.4-52.6c2.7,1.3,5.3,2.7,7.9,4c0.4,0.2,0.8,0.4,1.1,0.6
				C1946.3,394.3,1948.9,395.5,1951.4,396.8z" class="color8d8d8e svgShape"></path></g></g></svg></g></svg>